<?xml version="1.0" encoding="utf-8"?>
<svg width="800px" height="800px" viewBox="0 0 1024 1024" version="1.1" xmlns="http://www.w3.org/2000/svg">
  <path fill="#000000" d="M 87 87 L 87 257 C 177 257 263.666 274.333 347 309 C 430.333 343.666 503.833 392.833 567.5 456.5 C 631.166 520.166 680.333 593.666 715 677 C 749.666 760.333 767 847 767 937 L 937 937 C 937 824.333 915.5 716 872.5 612 C 829.5 508 768 416.166 688 336.5 C 608 256.833 516 195.333 412 152 C 308 108.666 199.666 87 87 87 Z M 87 374 L 87 539 C 139.666 539 190.5 549.166 239.5 569.5 C 288.5 589.833 331.666 618.666 369 656 C 406.333 693.333 435 736.333 455 785 C 475 833.666 485 884.333 485 937 L 650 937 C 650 862.333 635.833 790.5 607.5 721.5 C 579.166 652.5 538.5 591.666 485.5 539 C 432.5 486.333 371.5 445.666 302.5 417 C 233.5 388.333 161.666 374 87 374 Z M 204 704 C 182.666 704 163 709.333 145 720 C 127 730.666 112.833 744.833 102.5 762.5 C 92.166 780.166 87 799.666 87 821 C 87 842.333 92.166 861.833 102.5 879.5 C 112.833 897.166 127 911.166 145 921.5 C 163 931.833 182.5 937 203.5 937 C 224.5 937 244 931.833 262 921.5 C 280 911.166 294.166 897.166 304.5 879.5 C 314.833 861.833 320 842.333 320 821 C 320 799.666 314.833 780.166 304.5 762.5 C 294.166 744.833 280 730.666 262 720 C 244 709.333 224.666 704 204 704 Z"/>
</svg>