<svg xmlns="http://www.w3.org/2000/svg" width="288px" height="37px" viewBox="0 0 240 31"><path fill="#eb6912" stroke="#eb6912" stroke-width=".29386213" d="M97.161377 19.096411h-7.496309c.02592.917308.297779 1.650035.815665 2.198183.621105.519309 1.354425.714099 2.084793.663612.979645-.06771 1.76521-.120826 2.63404-1.265463l1.131226 1.017548c-.215734.334718-.619924.606446-.949024.86318-.754184.588329-1.618982.835405-2.784211.835405-1.424161 0-2.550554-.413907-3.379157-1.241721-.828614-.839001-1.242911-1.980043-1.242911-3.423124 0-1.443082.577126-2.535381 1.418688-3.396755.854501-.872561 2.144293-1.28087 3.179685-1.241955 2.171561.08162 4.587515 1.579153 4.587515 4.99109zm-7.457463-1.141041h5.729038c0-.760694-.265417-1.206466-.796242-1.721054-.530825-.514587-1.204075-.771881-2.01973-.771881s-1.488904.246108-2.019729.738321c-.530825.481028-.828604.937986-.893337 1.754614z" style="line-height:125%; text-align:start" font-size="17.5" font-family="FreeSans" letter-spacing="0" word-spacing="0"/><g fill="#605353" fill-rule="evenodd"><path d="M49.537543 4.8914737l-22.070082 7.165665v1.808799l22.600632-7.3380383zm-25.50859 8.282734L4 19.6031507l.5305504 1.636426 19.4984026-6.256571z" style="line-height:normal;text-indent:0;text-align:start;text-decoration-line:none;text-decoration-style:solid;text-decoration-color:#000000;text-transform:none;block-progression:tb;isolation:auto;mix-blend-mode:normal" color="#000" font-family="sans-serif" white-space="normal" overflow="visible" solid-color="#000000"/><path d="M25.734775 8.7887659l-8.309728 14.6718638h16.619456L25.734775 8.7887659zm0 3.7004248a1.0602067 1.0602067 0 0 1 1.058863 1.061104 1.0602067 1.0602067 0 0 1-1.058863 1.058863 1.0602067 1.0602067 0 0 1-1.061102-1.058863 1.0602067 1.0602067 0 0 1 1.061102-1.061104z"/></g><path fill="#eb6912" stroke="#eb6912" stroke-width=".28810284" d="M43.389174 21.153458c.125079.209554.28341.414949.488671.550138.39773.261957.880667.467157 1.357826.451954.326943-.01042.684905-.131319.908418-.368258.228285-.241997.318808-.611885.316859-.943317-.0016-.271608-.105606-.551856-.268737-.769994-.174909-.233888-.456935-.370371-.712889-.512979-.2416-.134609-.518208-.196967-.76698-.318041-.580877-.282705-1.281457-.451258-1.688068-.950538-.355695-.436757-.536838-1.046126-.509185-1.606946.03065-.621603.288491-1.282742.736911-1.717968.496518-.481908 1.076808-.767651 1.934878-.767651.858069 0 1.532915.329054 1.898142.682698.321343.31115.831031.998859.831031.998859l-1.01031.702739c-.571024-.769884-1.048021-1.104019-1.720287-1.054708-.581126.04262-1.245224.286638-1.335733 1.118777-.02931.26952.08375.566073.263799.769995.460614.521703 1.240285.642362 1.879478.923226.590515.259477.99707.564837 1.352217 1.046299.301999.40941.504506.928081.510105 1.435372.0067.608132-.14668 1.296897-.573375 1.733574-.577829.591348-1.514903.923237-2.341133.842929-.981509-.0954-1.649301-.153161-2.532322-1.517802z"/><path fill="#eb6912" stroke="#eb6912" stroke-width=".30061793" d="M72.44688 26.849692V14.407925h1.505406v1.356777c.768995-1.076261 1.857317-1.614392 3.264969-1.614392 1.355517 0 2.42429.440809 3.206319 1.322428.795063.881618 1.192594 1.776471 1.192594 3.287817 0 1.431199-.404048 2.581883-1.212144 3.452052-.795064.858719-1.850803 1.288079-3.167218 1.288079-1.26428 0-2.313501-.446534-3.147666-1.339602v4.688608zm4.496666-11.35978c-.704513.0181-1.420112.429749-1.884889.961765-.516091.590755-.766407 1.437277-.782029 2.223006-.01763.886615.210599 1.865733.782029 2.54181.454396.537612 1.182933.926765 1.884889.944591.782174.01986 1.603159-.314864 2.150579-.944591.54742-.641177.821131-1.471273.821131-2.490287 0-1.076261-.273711-1.633351-.821131-2.274529-.534387-.641177-1.36611-.981915-2.150579-.961765z"/><path fill="#eb6912" stroke="#eb6912" stroke-width=".29938263" d="M85.694214 10.709691v12.700618h-1.77137V10.709691h1.77137z"/><path fill="#605353" stroke="#605353" stroke-width=".29666814" d="M134.62397 16.01986l-1.38788.604757c-.33878-.349193-.42409-.462494-.70189-.597693-.54349-.264498-1.08201-.366466-1.78252-.366466-.91605 0-1.63677.305627-2.16216.916879-.51192.600336-.76787 1.267037-.76787 2.309441 0 1.042403.26269 1.682335.78807 2.260842.52539.578506 1.38306.942746 2.18237.975752 1.03802.04286 1.74908.06375 2.93347-1.028993l.99488 1.117968c-.57417.386439-.83547.63968-1.54901.927304-.88655.35736-1.60835.245266-2.41975.266028-1.07641.02754-2.44213-.406053-3.26326-1.21159-.87297-.856403-1.30409-2.008469-1.30409-3.394702 0-1.418978.30364-2.466771 1.15234-3.318157.86217-.851387 2.00725-1.277081 3.43522-1.277081 1.2259 0 2.09563.223553 2.88314.848086.28285.224317.59959.472546.96894.967625z"/><path fill="#605353" stroke="#605353" stroke-width=".29934436" d="M142.76483 16.90677c0-.219631-.16877-.593866-.5013-.826551-1.31818-.922369-2.26285-.424722-3.19154.188283-.45504.557504-.68256 1.234666-.68256 2.16384v5.034966h-1.45263V10.766652h1.45263v4.693318c.43171-.557505.77431-.689899 1.20488-.912776.44452-.230101 1.082-.303529 1.73539-.303529.88675 0 1.58681.226487 2.10019.679459.52504.441358.78757 1.045322.78757 1.811891v6.732293h-1.45263z"/><path fill="#605353" stroke="#605353" stroke-width=".29993269" d="M152.01896 14.227855h1.39194v1.539295c.42179-.641373.66319-.861503 1.14525-1.141375.49411-.279872 1.09066-.419808 1.78964-.419808.9159 0 1.64502.227396 2.18734.682188.54231.454791.90714 1.06118.90721 1.819166l.00061 6.69738-1.4109-.01248-.011-6.161852c-.00066-.371385-.27204-.916231-.63342-1.176943-1.24705-1.043288-2.90491-.03682-3.40054.588201-.47.559744-.4476.763938-.4476 1.696844v5.055185h-1.51848z"/><path fill="#605353" stroke="#605353" stroke-width=".29876751" d="M189.25997 14.711379v1.179896h-1.52295v7.515341h-1.45293v-7.515341h-1.22536v-1.179896h1.22536v-1.941177c0-.647786.0834-1.104687.45713-1.463284.38511-.370163 1.01914-.601534 1.696-.601534.26841 0 .54266.02892.82275.08676v1.197247c-.22174-.01157-.39095-.01735-.50765-.01735-.67687 0-1.0153.131266-1.0153.744348v1.994994z"/><path fill="#605353" stroke="#605353" stroke-width=".29211053" d="M195.57581 14.101862c1.41573 0 2.51199.422664 3.28877 1.267994.7893.834057 1.18396 1.82391 1.18396 3.356774 0 1.453966-.40092 2.597978-1.20275 3.432035-.78931.834057-1.87304 1.251087-3.25119 1.251087-1.40322 0-2.49948-.41703-3.28878-1.251087-.77677-.845329-1.16517-2.011883-1.16517-3.499661 0-1.48778.39466-2.455091 1.18397-3.289148.7893-.84533 1.87303-1.267994 3.25119-1.267994zm.0187 1.301806c-.877 0-1.56609.309954-2.06723.929862-.50115.608637-.75173 1.254724-.75173 2.325474 0 1.07075.25058 1.916078.75173 2.535986.50114.608637 1.19023.912956 2.06723.912956.86448 0 1.54728-.304319 2.04843-.912956.51368-.619908.77051-1.44833.77051-2.485267 0-1.093292-.25057-1.756285-.75172-2.376193-.48861-.619908-1.17768-.929862-2.06722-.929862z"/><path fill="#605353" stroke="#605353" stroke-width=".29856992" d="M206.91514 15.591624c-.98032.0231-1.80398.445285-2.29414.872708-.49016.427423-.64682 1.03914-.64682 2.228992v4.713198h-1.47048v-9.079837h1.34794v1.197484c.9353-1.022026 1.96584-1.310184 3.0635-1.405419z"/><g fill="#605353" fill-rule="evenodd" stroke="#605353" stroke-width=".30000001" color="#000" font-family="sans-serif" white-space="normal"><path d="M131.36021 15.858035v8.686221h1.40039v-8.686221z" style="line-height:normal;text-indent:0;text-align:start;text-decoration-line:none;text-decoration-style:solid;text-decoration-color:#000000;text-transform:none;block-progression:tb;isolation:auto;mix-blend-mode:normal" overflow="visible" solid-color="#000000" transform="matrix(.99968 0 0 1.01864 -8.703 -1.63)"/><path d="M129.08203 15.626953c-.99896-.174076-1.88581-.03949-2.62695.34375-1.48228.766474-2.22898 2.378446-2.30664 3.962891-.0777 1.584445.51718 3.259584 1.95508 4.115234 1.43789.85565 3.54226.741229 6.14453-.800781l-.71289-1.205078c-2.35289 1.394238-3.83725 1.326131-4.7168.802734-.87956-.523397-1.32971-1.653937-1.27148-2.841797.0582-1.187859.62821-2.313966 1.55078-2.791015.92256-.47705 2.3458-.457223 4.46484 1.05664l.81445-1.140625c-1.18519-.846715-2.29596-1.327876-3.29492-1.501953z" style="line-height:normal;text-indent:0;text-align:start;text-decoration-line:none;text-decoration-style:solid;text-decoration-color:#000000;text-transform:none;block-progression:tb;isolation:auto;mix-blend-mode:normal" overflow="visible" solid-color="#000000" transform="matrix(.99968 0 0 1.01864 -8.703 -1.63)"/></g><path fill="#605353" fill-rule="evenodd" stroke="#605353" stroke-width=".30000001" d="M210.25584 14.249633l-1.52547-.000005c.0954 2.795555-.0883 5.262784.24024 6.735146.16425.736181.62057 1.49521 1.1192 1.837461 1.27334.874014 3.42119.820216 4.63493-.13446.48598-.382255.85933-1.029623 1.01763-1.718601.31659-1.377954.17526-3.746658.2461-6.719546h-1.46653l-.009 5.28348c-.0006.354983-.18229 1.676106-.65397 2.055695-.7758.624332-2.22977.633789-2.99026-.009-.56673-.478993-.65339-1.740048-.64948-2.287836l.036-5.042328z" style="line-height:normal;text-indent:0;text-align:start;text-decoration-line:none;text-decoration-style:solid;text-decoration-color:#000000;text-transform:none;block-progression:tb;isolation:auto;mix-blend-mode:normal" color="#000" font-family="sans-serif" white-space="normal" overflow="visible" solid-color="#000000"/><text x="178.71123" y="14.038308" fill="#605353" style="line-height:125%" font-size="4.42516899" font-family="sans-serif" letter-spacing="0" word-spacing="0"><tspan x="178.71123" y="14.038308" style="-inkscape-font-specification:sans-serif">®</tspan></text><g fill="#eb6912" transform="matrix(1 0 0 1.00095 -7.62 -1.266)"><path stroke="#eb6912" stroke-width=".30044258" d="M59.997591 15.448523v9.199558h-1.639558v-9.199558z"/><ellipse cx="59.169979" cy="12.935604" ry="1.125" rx="1.078125"/></g><g fill="#605353" transform="matrix(1 0 0 1.00095 88.938 -1.266)"><path stroke="#605353" stroke-width=".30044258" d="M59.997591 15.448523v9.199558h-1.639558v-9.199558z"/><ellipse cx="59.169979" cy="12.935604" ry="1.125" rx="1.078125"/></g><path fill="#605353" stroke="#605353" stroke-width=".30047739" d="M218.41181 14.206045h1.54398l.00021 1.299169c.83583-.824636 1.92234-1.150135 2.97812-1.092255 1.05073.0576 2.23912.46817 2.82728 1.404508.49462-.514986.98254-.877817 1.46378-1.088494.48125-.210676 1.06944-.316014 1.76455-.316014.97585 0 1.6111.13141 2.24579.573089.50518.351546 1.05206.971033 1.05206 1.519878v6.899642h-1.49684v-6.037173c0-.673599-.54334-1.280306-1.12868-1.505949-.88476-.341067-2.07945-.152217-2.79252.542133-.39867.388202-.67767.858478-.67767 1.525618v5.475371h-1.41918l-.0442-5.759505c-.0442-1.523246-1.30585-1.933675-2.21017-1.942986-.63995-.0066-1.3925.306205-1.87708.779726-.40354.394322-.68524.880575-.68524 1.547716v5.375049h-1.5442z"/><path fill="#605353" stroke="#605353" stroke-width=".29386213" d="M171.07401 19.096604h-7.49631c.0259.917308.29778 1.650035.81567 2.198183.6211.519309 1.35442.714099 2.08479.663612.97964-.06771 1.76521-.120826 2.63404-1.265463l1.13122 1.017548c-.21573.334718-.61992.606446-.94902.86318-.75418.588329-1.61898.835405-2.78421.835405-1.42416 0-2.55055-.413907-3.37916-1.241721-.82861-.839001-1.24291-1.980043-1.24291-3.423124 0-1.443082.57713-2.535381 1.41869-3.396755.8545-.872561 2.14429-1.28087 3.17968-1.241955 2.17156.08162 4.58752 1.579153 4.58752 4.99109zm-7.45746-1.141041h5.72903c0-.760694-.26541-1.206466-.79624-1.721054-.53082-.514587-1.20407-.771881-2.01973-.771881-.81565 0-1.4889.246108-2.01973.738321-.53082.481028-.8286.937986-.89333 1.754614z"/><text x="31.148907" y="18.68512" fill="#605353" style="line-height:125%" font-size="5.07199335" font-family="sans-serif" letter-spacing="0" word-spacing="0"><tspan x="31.148907" y="18.68512" style="-inkscape-font-specification:sans-serif">®</tspan></text><path fill="#605353" stroke="#605353" stroke-width=".28810284" d="M174.79067 21.153651c.12508.209554.28341.414949.48867.550138.39773.261957.88067.467157 1.35783.451954.32694-.01042.6849-.131319.90842-.368258.22828-.241997.3188-.611885.31685-.943317-.002-.271608-.1056-.551856-.26873-.769994-.17491-.233888-.45694-.370371-.71289-.512979-.2416-.134609-.51821-.196967-.76698-.318041-.58088-.282705-1.28146-.451258-1.68807-.950538-.35569-.436757-.53684-1.046126-.50918-1.606946.0307-.621603.28849-1.282742.73691-1.717968.49651-.481908 1.0768-.767651 1.93487-.767651.85807 0 1.53292.329054 1.89815.682698.32134.31115.83103.998859.83103.998859l-1.01031.702739c-.57103-.769884-1.04802-1.104019-1.72029-1.054708-.58113.04262-1.24522.286638-1.33573 1.118777-.0293.26952.0838.566073.2638.769995.46061.521703 1.24028.642362 1.87947.923226.59052.259477.99707.564837 1.35222 1.046299.302.40941.50451.928081.51011 1.435372.007.608132-.14668 1.296897-.57338 1.733574-.57783.591348-1.5149.923237-2.34113.842929-.98151-.0954-1.6493-.153161-2.53232-1.517802z"/><path fill="#605353" stroke="#605353" stroke-width=".30047739" d="M99.59245 14.210238h1.54398l.00021 1.299169c.83583-.824636 1.92234-1.150135 2.97812-1.092255 1.05073.0576 2.23912.46817 2.82728 1.404508.49462-.514986.98254-.877817 1.46378-1.088494.48125-.210676 1.06944-.316014 1.76455-.316014.97585 0 1.6111.13141 2.24579.573089.50518.351546 1.05206.971033 1.05206 1.519878v6.899642h-1.49684v-6.037173c0-.673599-.54334-1.280306-1.12868-1.505949-.88476-.341067-2.07945-.152217-2.79252.542133-.39867.388202-.67767.858478-.67767 1.525618v5.475371h-1.41918l-.0442-5.759505c-.0442-1.523246-1.30585-1.933675-2.21017-1.942986-.63995-.0066-1.3925.306205-1.87708.779726-.40354.394322-.68524.880575-.68524 1.547716v5.375049h-1.5442z"/><path fill="#eb6912" stroke="#eb6912" stroke-width=".30047739" d="M55.642926 14.210238h1.54398l.00021 1.299169c.83583-.824636 1.92234-1.150135 2.97812-1.092255 1.05073.0576 2.23912.46817 2.82728 1.404508.49462-.514986.98254-.877817 1.46378-1.088494.48125-.210676 1.06944-.316014 1.76455-.316014.97585 0 1.6111.13141 2.24579.573089.50518.351546 1.05206.971033 1.05206 1.519878v6.899642h-1.49684v-6.037173c0-.673599-.54334-1.280306-1.12868-1.505949-.88476-.341067-2.07945-.152217-2.79252.542133-.39867.388202-.67767.858478-.67767 1.525618v5.475371h-1.41918l-.0442-5.759505c-.0442-1.523246-1.30585-1.933675-2.21017-1.942986-.63995-.0066-1.3925.306205-1.87708.779726-.40354.394322-.68524.880575-.68524 1.547716v5.375049h-1.5442z"/></svg>

